<svg width="160" height="29" viewBox="0 0 160 29" fill="none" xmlns="http://www.w3.org/2000/svg">
<path d="M136.081 28.5545V0H149.681C152.72 0 155.067 0.661546 156.72 1.98464C158.4 3.30773 159.24 5.10335 159.24 7.37151C159.24 9.04563 158.76 10.4767 157.8 11.6648C156.867 12.8529 155.587 13.6629 153.96 14.095V13.4469C155.267 13.6899 156.36 14.122 157.24 14.743C158.12 15.3641 158.8 16.1606 159.28 17.1327C159.76 18.0777 160 19.1848 160 20.4539C160 22.101 159.6 23.5321 158.8 24.7472C158 25.9623 156.854 26.9074 155.36 27.5824C153.894 28.2304 152.134 28.5545 150.081 28.5545H136.081ZM143.121 23.0866H149.081C149.641 23.0866 150.134 23.0461 150.561 22.9651C150.987 22.8841 151.347 22.7626 151.641 22.6006C151.934 22.4386 152.187 22.236 152.4 21.993C152.614 21.723 152.76 21.426 152.84 21.102C152.947 20.7509 153 20.3594 153 19.9274C153 19.5223 152.947 19.1578 152.84 18.8338C152.76 18.4828 152.614 18.1858 152.4 17.9427C152.187 17.6727 151.934 17.4567 151.641 17.2947C151.347 17.1327 150.987 17.0112 150.561 16.9302C150.134 16.8492 149.641 16.8087 149.081 16.8087H143.121V23.0866ZM143.121 11.3408H148.361C149.694 11.3408 150.667 11.0978 151.281 10.6117C151.92 10.1257 152.24 9.38315 152.24 8.38408C152.24 7.38501 151.92 6.65596 151.281 6.19693C150.667 5.71089 149.694 5.46788 148.361 5.46788H143.121V11.3408Z" fill="#202529"/>
<path d="M123.485 28.5545V0H130.845V28.5545H123.485Z" fill="#202529"/>
<path d="M99.9522 28.5545V0H107.312V22.3575H119.871V28.5545H99.9522Z" fill="#202529"/>
<path d="M76.1345 28.5545V0H83.254V16.6467H83.334L89.8137 8.6271H98.1732L89.3737 19.3198V16.8087L98.4531 28.5545H89.9336L83.334 20.2514H83.254V28.5545H76.1345Z" fill="#202529"/>
<path d="M61.8968 29C59.7103 29 57.8037 28.5815 56.1771 27.7444C54.5506 26.9074 53.284 25.7058 52.3774 24.1397C51.4707 22.5736 51.0174 20.7239 51.0174 18.5908C51.0174 16.4306 51.4707 14.581 52.3774 13.0419C53.284 11.4758 54.5506 10.2742 56.1771 9.43715C57.8037 8.60009 59.7103 8.18156 61.8968 8.18156C64.0833 8.18156 65.9899 8.60009 67.6165 9.43715C69.243 10.2742 70.4963 11.4758 71.3762 13.0419C72.2829 14.581 72.7362 16.4306 72.7362 18.5908C72.7362 20.7239 72.2829 22.5736 71.3762 24.1397C70.4963 25.7058 69.243 26.9074 67.6165 27.7444C65.9899 28.5815 64.0833 29 61.8968 29ZM61.8968 23.6941C62.9634 23.6941 63.8434 23.2891 64.5366 22.4791C65.2299 21.669 65.5766 20.3729 65.5766 18.5908C65.5766 16.7817 65.2299 15.4856 64.5366 14.7025C63.8434 13.8925 62.9634 13.4874 61.8968 13.4874C60.8035 13.4874 59.9103 13.8925 59.217 14.7025C58.5237 15.4856 58.177 16.7817 58.177 18.5908C58.177 20.3729 58.5237 21.669 59.217 22.4791C59.9103 23.2891 60.8035 23.6941 61.8968 23.6941Z" fill="#202529"/>
<path d="M37.6997 29C35.5132 29 33.6066 28.5815 31.9801 27.7444C30.3535 26.9074 29.0869 25.7058 28.1803 24.1397C27.2737 22.5736 26.8204 20.7239 26.8204 18.5908C26.8204 16.4306 27.2737 14.581 28.1803 13.0419C29.0869 11.4758 30.3535 10.2742 31.9801 9.43715C33.6066 8.60009 35.5132 8.18156 37.6997 8.18156C39.8863 8.18156 41.7928 8.60009 43.4194 9.43715C45.046 10.2742 46.2992 11.4758 47.1792 13.0419C48.0858 14.581 48.5391 16.4306 48.5391 18.5908C48.5391 20.7239 48.0858 22.5736 47.1792 24.1397C46.2992 25.7058 45.046 26.9074 43.4194 27.7444C41.7928 28.5815 39.8863 29 37.6997 29ZM37.6997 23.6941C38.7663 23.6941 39.6463 23.2891 40.3396 22.4791C41.0329 21.669 41.3795 20.3729 41.3795 18.5908C41.3795 16.7817 41.0329 15.4856 40.3396 14.7025C39.6463 13.8925 38.7663 13.4874 37.6997 13.4874C36.6065 13.4874 35.7132 13.8925 35.0199 14.7025C34.3266 15.4856 33.98 16.7817 33.98 18.5908C33.98 20.3729 34.3266 21.669 35.0199 22.4791C35.7132 23.2891 36.6065 23.6941 37.6997 23.6941Z" fill="#202529"/>
<path d="M0 28.5545V0H13.5992C16.639 0 18.9855 0.661546 20.6388 1.98464C22.3187 3.30773 23.1586 5.10335 23.1586 7.37151C23.1586 9.04563 22.6787 10.4767 21.7187 11.6648C20.7854 12.8529 19.5055 13.6629 17.879 14.095V13.4469C19.1855 13.6899 20.2788 14.122 21.1588 14.743C22.0387 15.3641 22.7187 16.1606 23.1986 17.1327C23.6786 18.0777 23.9186 19.1848 23.9186 20.4539C23.9186 22.101 23.5186 23.5321 22.7187 24.7472C21.9187 25.9623 20.7721 26.9074 19.2789 27.5824C17.8123 28.2304 16.0524 28.5545 13.9992 28.5545H0ZM7.03959 23.0866H12.9992C13.5592 23.0866 14.0525 23.0461 14.4791 22.9651C14.9058 22.8841 15.2658 22.7626 15.5591 22.6006C15.8524 22.4386 16.1057 22.236 16.319 21.993C16.5324 21.723 16.679 21.426 16.759 21.102C16.8657 20.7509 16.919 20.3594 16.919 19.9274C16.919 19.5223 16.8657 19.1578 16.759 18.8338C16.679 18.4828 16.5324 18.1858 16.319 17.9427C16.1057 17.6727 15.8524 17.4567 15.5591 17.2947C15.2658 17.1327 14.9058 17.0112 14.4791 16.9302C14.0525 16.8492 13.5592 16.8087 12.9992 16.8087H7.03959V23.0866ZM7.03959 11.3408H12.2793C13.6125 11.3408 14.5858 11.0978 15.1991 10.6117C15.8391 10.1257 16.1591 9.38315 16.1591 8.38408C16.1591 7.38501 15.8391 6.65596 15.1991 6.19693C14.5858 5.71089 13.6125 5.46788 12.2793 5.46788H7.03959V11.3408Z" fill="#202529"/>
</svg>
